<svg xmlns="http://www.w3.org/2000/svg" viewBox="0 0 660 330" font-family="-apple-system,BlinkMacSystemFont,Segoe UI,Roboto,Helvetica,Arial,sans-serif">
<rect width="660" height="330" fill="#ffffff"/>
<text x="66" y="27" font-size="16" font-weight="700" fill="#2a2f33">Correctness — of 18</text>
<text x="66" y="45" font-size="11" fill="#6b747a">Σ over the T4+ ladder, N=3 · higher is better (near-ceiling wash)</text>
<rect x="464" y="16" width="11" height="11" rx="2" fill="#158b7c"/>
<text x="480" y="26" font-size="11.5" fill="#2a2f33">builder</text>
<rect x="560" y="16" width="11" height="11" rx="2" fill="#c1783b"/>
<text x="576" y="26" font-size="11.5" fill="#2a2f33">fan-out</text>
<line x1="66" y1="278.0" x2="638" y2="278.0" stroke="#e6e9ea" stroke-width="1"/>
<text x="57" y="282.0" font-size="10" fill="#6b747a" text-anchor="end">0</text>
<line x1="66" y1="205.3" x2="638" y2="205.3" stroke="#e6e9ea" stroke-width="1"/>
<text x="57" y="209.3" font-size="10" fill="#6b747a" text-anchor="end">6</text>
<line x1="66" y1="132.7" x2="638" y2="132.7" stroke="#e6e9ea" stroke-width="1"/>
<text x="57" y="136.7" font-size="10" fill="#6b747a" text-anchor="end">12</text>
<line x1="66" y1="60.0" x2="638" y2="60.0" stroke="#e6e9ea" stroke-width="1"/>
<text x="57" y="64.0" font-size="10" fill="#6b747a" text-anchor="end">18</text>
<line x1="66" y1="278.0" x2="638" y2="278.0" stroke="#6b747a" stroke-width="1.2"/>
<rect x="107.0" y="72.1" width="49.6" height="205.9" rx="2.5" fill="#158b7c"/>
<text x="131.8" y="66.1" font-size="10.5" font-weight="600" fill="#158b7c" text-anchor="middle">17</text>
<rect x="166.1" y="108.4" width="49.6" height="169.6" rx="2.5" fill="#c1783b"/>
<text x="190.9" y="102.4" font-size="10.5" font-weight="600" fill="#c1783b" text-anchor="middle">14</text>
<text x="161.3" y="297.0" font-size="12.5" fill="#2a2f33" text-anchor="middle">head</text>
<rect x="297.7" y="72.1" width="49.6" height="205.9" rx="2.5" fill="#158b7c"/>
<text x="322.4" y="66.1" font-size="10.5" font-weight="600" fill="#158b7c" text-anchor="middle">17</text>
<rect x="356.8" y="84.2" width="49.6" height="193.8" rx="2.5" fill="#c1783b"/>
<text x="381.6" y="78.2" font-size="10.5" font-weight="600" fill="#c1783b" text-anchor="middle">16</text>
<text x="352.0" y="297.0" font-size="12.5" fill="#2a2f33" text-anchor="middle">tail</text>
<rect x="488.3" y="60.0" width="49.6" height="218.0" rx="2.5" fill="#158b7c"/>
<text x="513.1" y="54.0" font-size="10.5" font-weight="600" fill="#158b7c" text-anchor="middle">18</text>
<rect x="547.4" y="84.2" width="49.6" height="193.8" rx="2.5" fill="#c1783b"/>
<text x="572.2" y="78.2" font-size="10.5" font-weight="600" fill="#c1783b" text-anchor="middle">16</text>
<text x="542.7" y="297.0" font-size="12.5" fill="#2a2f33" text-anchor="middle">pull</text>
</svg>