<svg xmlns="http://www.w3.org/2000/svg" viewBox="0 0 660 330" font-family="-apple-system,BlinkMacSystemFont,Segoe UI,Roboto,Helvetica,Arial,sans-serif">
<rect width="660" height="330" fill="#ffffff"/>
<text x="66" y="27" font-size="16" font-weight="700" fill="#2a2f33">Cost — $eff per run</text>
<text x="66" y="45" font-size="11" fill="#6b747a">Σ over the T4+ ladder, N=3 · lower is better</text>
<rect x="464" y="16" width="11" height="11" rx="2" fill="#158b7c"/>
<text x="480" y="26" font-size="11.5" fill="#2a2f33">builder</text>
<rect x="560" y="16" width="11" height="11" rx="2" fill="#c1783b"/>
<text x="576" y="26" font-size="11.5" fill="#2a2f33">fan-out</text>
<line x1="66" y1="278.0" x2="638" y2="278.0" stroke="#e6e9ea" stroke-width="1"/>
<text x="57" y="282.0" font-size="10" fill="#6b747a" text-anchor="end">$0</text>
<line x1="66" y1="227.7" x2="638" y2="227.7" stroke="#e6e9ea" stroke-width="1"/>
<text x="57" y="231.7" font-size="10" fill="#6b747a" text-anchor="end">$0.030</text>
<line x1="66" y1="177.4" x2="638" y2="177.4" stroke="#e6e9ea" stroke-width="1"/>
<text x="57" y="181.4" font-size="10" fill="#6b747a" text-anchor="end">$0.060</text>
<line x1="66" y1="127.1" x2="638" y2="127.1" stroke="#e6e9ea" stroke-width="1"/>
<text x="57" y="131.1" font-size="10" fill="#6b747a" text-anchor="end">$0.090</text>
<line x1="66" y1="76.8" x2="638" y2="76.8" stroke="#e6e9ea" stroke-width="1"/>
<text x="57" y="80.8" font-size="10" fill="#6b747a" text-anchor="end">$0.120</text>
<line x1="66" y1="278.0" x2="638" y2="278.0" stroke="#6b747a" stroke-width="1.2"/>
<rect x="107.0" y="105.1" width="49.6" height="172.9" rx="2.5" fill="#158b7c"/>
<text x="131.8" y="99.1" font-size="10.5" font-weight="600" fill="#158b7c" text-anchor="middle">$0.103</text>
<rect x="166.1" y="110.0" width="49.6" height="168.0" rx="2.5" fill="#c1783b"/>
<text x="190.9" y="104.0" font-size="10.5" font-weight="600" fill="#c1783b" text-anchor="middle">$0.100</text>
<text x="161.3" y="297.0" font-size="12.5" fill="#2a2f33" text-anchor="middle">head</text>
<rect x="297.7" y="152.4" width="49.6" height="125.6" rx="2.5" fill="#158b7c"/>
<text x="322.4" y="146.4" font-size="10.5" font-weight="600" fill="#158b7c" text-anchor="middle">$0.075</text>
<rect x="356.8" y="96.4" width="49.6" height="181.6" rx="2.5" fill="#c1783b"/>
<text x="381.6" y="90.4" font-size="10.5" font-weight="600" fill="#c1783b" text-anchor="middle">$0.108</text>
<text x="352.0" y="297.0" font-size="12.5" fill="#2a2f33" text-anchor="middle">tail</text>
<rect x="488.3" y="161.8" width="49.6" height="116.2" rx="2.5" fill="#158b7c"/>
<text x="513.1" y="155.8" font-size="10.5" font-weight="600" fill="#158b7c" text-anchor="middle">$0.069</text>
<rect x="547.4" y="89.8" width="49.6" height="188.2" rx="2.5" fill="#c1783b"/>
<text x="572.2" y="83.8" font-size="10.5" font-weight="600" fill="#c1783b" text-anchor="middle">$0.112</text>
<text x="542.7" y="297.0" font-size="12.5" fill="#2a2f33" text-anchor="middle">pull</text>
</svg>